# 3ds Max Wavefront OBJ Exporter v0.97b - (c)2007 guruware
# File Created: 10.12.2022 20:07:29

mtllib chainsaw.mtl

#
# object rdmobj01_model_om_om0
#

v  -0.6843 -0.2898 2.0307
v  -0.7098 -0.4572 1.9304
v  -0.8215 -0.2893 1.9091
v  -0.3897 -0.4572 1.9304
v  -0.3795 -0.2898 2.0307
v  -0.6747 1.1658 2.2484
v  -0.7652 0.4946 2.1481
v  -0.8119 1.1658 2.1266
v  -0.9198 0.4948 2.0263
v  -0.6496 1.3488 2.1573
v  -0.7093 -0.4581 2.1737
v  -0.8211 -0.2902 2.1524
v  -0.3777 -0.4581 2.1737
v  -0.6492 1.3488 2.4007
v  -0.8115 1.1658 2.3701
v  -0.9193 0.4944 2.2698
v  0.6747 1.1658 2.2484
v  0.6496 1.3488 2.1573
v  0.8119 1.1658 2.1266
v  0.7097 -0.4572 1.9304
v  0.6842 -0.2898 2.0307
v  0.8215 -0.2893 1.9091
v  0.7652 0.4946 2.1481
v  0.9198 0.4948 2.0263
v  0.3897 -0.4572 1.9304
v  0.3795 -0.2898 2.0307
v  0.4394 0.9649 2.1898
v  0.4394 0.7158 1.0254
v  -0.4394 0.9649 2.1898
v  -0.4394 0.7158 1.0254
v  0.3216 1.0866 2.6419
v  0.4394 1.2476 2.6794
v  0.3216 0.9300 2.4842
v  -0.3216 1.0866 2.6419
v  -0.3216 0.9300 2.4842
v  -0.4394 1.2476 2.6794
v  -0.4394 0.7914 2.2864
v  -0.4394 1.2135 2.7666
v  -0.4394 0.4690 0.3375
v  -0.4394 -0.3485 0.3375
v  -0.4394 -0.4960 2.2796
v  -0.4394 -0.4960 0.3375
v  -0.1209 -0.4307 -0.3867
v  -0.1596 -0.2963 -0.2739
v  -0.1596 -0.1216 -0.3657
v  -0.1209 -0.1949 -0.4784
v  -0.1596 0.0530 -0.3657
v  -0.1209 0.0409 -0.4784
v  -0.1596 0.2277 -0.2739
v  -0.1209 0.2767 -0.3867
v  -0.3467 0.9735 0.8803
v  0.1596 -0.2963 -0.2739
v  0.4394 -0.3485 0.3375
v  0.1596 0.2277 -0.2739
v  0.4394 0.4690 0.3375
v  0.7093 -0.4581 2.1737
v  0.3777 -0.4581 2.1737
v  0.6492 1.3488 2.4007
v  0.8115 1.1658 2.3701
v  0.9193 0.4944 2.2698
v  0.8211 -0.2902 2.1524
v  0.4394 1.2135 2.7666
v  0.3467 0.9735 0.8803
v  0.4394 0.7914 2.2864
v  0.4394 -0.4960 2.2796
v  0.1209 0.2767 -0.3867
v  0.1596 0.0530 -0.3657
v  0.1209 0.0409 -0.4784
v  0.1596 -0.1216 -0.3657
v  0.1209 -0.1949 -0.4784
v  0.1209 -0.4307 -0.3867
v  0.4394 -0.4960 0.3375
v  -0.4271 1.2789 2.2654
v  -0.4113 1.4620 2.1742
v  0.4112 1.4620 2.1742
v  0.4271 1.2789 2.2654
v  -0.4110 1.4619 2.4177
v  0.4110 1.4619 2.4177
v  -0.3787 0.3141 5.7312
v  -0.2089 0.3141 5.7312
v  -0.3787 0.4062 5.4953
v  -0.2089 0.4062 5.4953
v  -0.2089 0.1805 5.7658
v  -0.3787 0.1805 5.7658
v  -0.3787 0.0470 5.7312
v  -0.2089 0.0470 5.7312
v  -0.2089 -0.0451 5.4953
v  -0.3787 -0.0451 5.4953
v  -0.2089 0.4565 2.1679
v  -0.3787 0.4565 2.1679
v  -0.2089 0.4571 2.7225
v  -0.3787 0.4571 2.7225
v  -0.3787 0.4709 3.2770
v  -0.2089 0.4709 3.2770
v  -0.3787 0.4709 4.3861
v  -0.2089 0.4709 4.3861
v  -0.3787 0.4571 4.9407
v  -0.2089 0.4571 4.9407
v  -0.2089 -0.0960 4.9407
v  -0.3787 -0.0960 4.9407
v  -0.3787 -0.1097 4.3861
v  -0.2089 -0.1097 4.3861
v  -0.3787 -0.1097 3.2770
v  -0.2089 -0.1097 3.2770
v  -0.3787 -0.0960 2.7225
v  -0.2089 -0.0960 2.7225
v  -0.3787 -0.0953 2.1679
v  -0.2089 -0.0953 2.1679
v  -0.2938 -0.1384 5.5328
v  -0.2938 -0.2094 2.1697
v  -0.2938 -0.2103 2.7303
v  -0.2938 -0.2297 3.2908
v  -0.2938 -0.2103 4.9723
v  -0.2938 0.4995 5.5328
v  -0.2938 0.5714 4.9723
v  -0.2938 0.5908 4.4118
v  -0.2938 0.5908 3.2908
v  -0.2938 0.5714 2.7303
v  -0.2938 0.5705 2.1697
v  -0.2938 0.3661 5.8561
v  -0.2938 0.1805 5.9156
v  -0.2938 -0.2297 4.4118
v  -0.2938 -0.0050 5.8561
# 123 vertices

vn 0.7260 0.6812 -0.0939
vn -0.3164 -0.5717 -0.7570
vn -0.4385 -0.1572 -0.8849
vn 0.0000 -0.4899 -0.8718
vn 0.0000 0.9985 -0.0550
vn 0.8174 -0.5748 -0.0383
vn 0.9999 -0.0172 -0.0015
vn -0.4274 0.3603 -0.8292
vn -0.4975 0.1211 -0.8590
vn -0.3182 0.4426 -0.8383
vn -0.3338 -0.4872 0.8070
vn -0.4829 -0.2521 0.8386
vn 0.0000 -0.3950 0.9187
vn -0.3782 0.3010 0.8754
vn -0.4741 0.1595 0.8659
vn -0.4974 -0.1020 0.8615
vn -0.8180 -0.5737 -0.0419
vn 0.3182 0.4426 -0.8383
vn 0.4264 0.3519 -0.8333
vn 0.3163 -0.5717 -0.7570
vn -0.7270 0.6806 -0.0904
vn 0.4387 -0.1645 -0.8834
vn -0.9999 -0.0170 -0.0024
vn 0.4977 0.1331 -0.8571
vn 0.6768 0.7303 -0.0928
vn 0.8553 0.5031 0.1240
vn -0.6768 0.7303 -0.0928
vn -0.8553 0.5031 0.1240
vn -0.6672 -0.7428 -0.0559
vn 0.5457 0.7927 -0.2718
vn -0.4460 -0.2075 0.8707
vn 0.6672 -0.7428 -0.0559
vn 0.4460 -0.2075 0.8707
vn -0.5457 0.7927 -0.2718
vn -0.8239 -0.2548 0.5063
vn -0.5626 0.1666 0.8097
vn -0.8612 0.1051 -0.4973
vn -0.8863 0.2199 -0.4076
vn -0.5776 -0.5787 0.5757
vn -0.7217 -0.6702 -0.1730
vn -0.4812 -0.6602 -0.5767
vn -0.8225 0.5663 0.0535
vn -0.8645 0.1449 0.4814
vn -0.5631 -0.1588 -0.8110
vn -0.8810 -0.0930 0.4639
vn -0.5500 0.1537 -0.8209
vn -0.7925 -0.5855 0.1708
vn -0.5014 0.5246 -0.6880
vn -0.4658 0.8613 0.2030
vn 0.8225 0.5663 0.0535
vn 0.8863 0.2199 -0.4076
vn 0.7941 -0.5805 0.1799
vn 0.8612 0.1051 -0.4973
vn 0.3338 -0.4872 0.8070
vn 0.3782 0.3010 0.8754
vn 0.4738 0.1681 0.8644
vn 0.4984 -0.1141 0.8594
vn 0.4821 -0.2442 0.8414
vn 0.5626 0.1666 0.8097
vn 0.4658 0.8613 0.2030
vn 0.8239 -0.2548 0.5063
vn 0.5776 -0.5787 0.5757
vn 0.4964 0.5309 -0.6868
vn 0.8759 -0.1158 0.4685
vn 0.5472 0.1490 -0.8236
vn 0.8645 0.1449 0.4814
vn 0.5631 -0.1588 -0.8110
vn 0.4812 -0.6602 -0.5767
vn 0.7217 -0.6702 -0.1730
vn 0.2579 -0.9607 -0.1021
vn -0.1281 0.5899 -0.7972
vn 0.1281 0.5899 -0.7972
vn -0.2579 -0.9607 -0.1021
vn -0.1531 0.4829 0.8622
vn 0.1531 0.4829 0.8622
vn -0.7314 0.4834 0.4809
vn 0.7338 0.4786 0.4821
vn -0.7165 0.6780 0.1643
vn 0.7148 0.6814 0.1575
vn 0.7667 -0.0000 0.6420
vn -0.7667 -0.0000 0.6420
vn -0.7314 -0.4834 0.4809
vn 0.7338 -0.4787 0.4821
vn 0.7174 -0.6775 0.1620
vn -0.7138 -0.6818 0.1598
vn 0.7199 0.6911 -0.0634
vn -0.7238 0.6863 -0.0715
vn 0.7426 0.6682 -0.0448
vn -0.7445 0.6665 -0.0394
vn -0.7529 0.6580 -0.0094
vn 0.7535 0.6574 -0.0083
vn -0.7540 0.6568 0.0078
vn 0.7536 0.6572 0.0087
vn -0.7477 0.6629 0.0388
vn 0.7457 0.6650 0.0412
vn 0.7477 -0.6629 0.0388
vn -0.7457 -0.6650 0.0412
vn -0.7536 -0.6572 0.0087
vn 0.7540 -0.6568 0.0078
vn -0.7535 -0.6574 -0.0083
vn 0.7529 -0.6580 -0.0094
vn -0.7426 -0.6682 -0.0448
vn 0.7445 -0.6665 -0.0394
vn -0.7199 -0.6911 -0.0634
vn 0.7238 -0.6863 -0.0715
vn -0.0048 -0.9672 0.2540
vn -0.0083 -0.9937 -0.1121
vn -0.0017 -0.9976 -0.0686
vn 0.0007 -0.9999 -0.0143
vn -0.0048 -0.9971 0.0754
vn 0.0009 0.9672 0.2540
vn 0.0048 0.9971 0.0754
vn 0.0011 0.9999 0.0168
vn -0.0007 0.9999 -0.0143
vn 0.0017 0.9976 -0.0686
vn 0.0083 0.9937 -0.1121
vn -0.0009 0.6343 0.7731
vn 0.0000 -0.0000 1.0000
vn -0.0011 -0.9999 0.0168
vn -0.0009 -0.6343 0.7731
# 120 vertex normals

vt 0.1296 0.0916 0.0000
vt 0.0391 0.0367 0.0000
vt 0.1038 0.0367 0.0000
vt 0.0037 0.0367 0.0000
vt 0.0037 0.0916 0.0000
vt 0.2465 0.0916 0.0000
vt 0.1880 0.0916 0.0000
vt 0.2126 0.0367 0.0000
vt 0.1582 0.0367 0.0000
vt 0.2417 0.0367 0.0000
vt 0.2421 0.0367 0.0000
vt 0.2156 0.0916 0.0000
vt 0.2096 0.0367 0.0000
vt 0.3230 0.0916 0.0000
vt 0.3230 0.0367 0.0000
vt 0.1664 0.0367 0.0000
vt 0.1913 0.0367 0.0000
vt 0.1617 0.0916 0.0000
vt 0.2004 0.0367 0.0000
vt 0.1886 0.0916 0.0000
vt 0.0892 0.5083 0.0000
vt 0.3982 0.5083 0.0000
vt 0.0892 0.3203 0.0000
vt 0.3982 0.3203 0.0000
vt 0.8721 0.1304 0.0000
vt 0.9141 0.1032 0.0000
vt 0.8135 0.1304 0.0000
vt 0.7729 0.1032 0.0000
vt 0.8721 0.2722 0.0000
vt 0.8135 0.2722 0.0000
vt 0.9141 0.2996 0.0000
vt 0.7729 0.2996 0.0000
vt 0.0628 0.6465 0.0000
vt 0.0147 0.4580 0.0000
vt 0.0872 0.5967 0.0000
vt 0.0446 0.4536 0.0000
vt 0.6167 0.7290 0.0000
vt 0.6167 0.9390 0.0000
vt 0.4180 0.6646 0.0000
vt 0.0689 0.9844 0.0000
vt 0.6167 0.9844 0.0000
vt 0.8398 0.9844 0.0000
vt 0.8218 0.9614 0.0000
vt 0.8218 0.9082 0.0000
vt 0.8398 0.9141 0.0000
vt 0.8218 0.8545 0.0000
vt 0.8398 0.8433 0.0000
vt 0.8218 0.8008 0.0000
vt 0.8398 0.7725 0.0000
vt 0.4707 0.5684 0.0000
vt 0.7896 0.5830 0.0000
vt 0.7896 0.5342 0.0000
vt 0.7183 0.6221 0.0000
vt 0.7183 0.4912 0.0000
vt 0.5420 0.5332 0.0000
vt 0.5420 0.5840 0.0000
vt 0.6240 0.4912 0.0000
vt 0.6240 0.6221 0.0000
vt 0.2646 0.0359 0.0000
vt 0.2656 0.0907 0.0000
vt 0.3181 0.0359 0.0000
vt 0.3181 0.0907 0.0000
vt 0.8076 0.3325 0.0000
vt 0.8076 0.3652 0.0000
vt 0.9868 0.3325 0.0000
vt 0.9868 0.3652 0.0000
vt 0.4446 0.4861 0.0000
vt 0.4446 0.3398 0.0000
vt 0.9868 0.4609 0.0000
vt 0.8076 0.4609 0.0000
vt 0.9868 0.7007 0.0000
vt 0.8076 0.7007 0.0000
vt 0.9868 0.3650 0.0000
vt 0.9648 0.4246 0.0000
vt 0.9648 0.3936 0.0000
vt 0.8076 0.3650 0.0000
vt 0.8306 0.3936 0.0000
vt 0.8306 0.4246 0.0000
vt 0.7900 0.3875 0.0000
vt 0.7900 0.4385 0.0000
vt 0.8721 0.9868 0.0000
vt 0.9907 0.9868 0.0000
vt 0.8721 0.7891 0.0000
vt 0.9907 0.7891 0.0000
vt 0.8984 0.7227 0.0000
vt 0.9692 0.7227 0.0000
vt 0.2876 0.0916 0.0000
vt 0.2834 0.0367 0.0000
vt 0.2146 0.0916 0.0000
vt 0.2131 0.0367 0.0000
vt 0.1428 0.0367 0.0000
vt 0.1415 0.0916 0.0000
vt 0.0726 0.0367 0.0000
vt 0.0685 0.0916 0.0000
vt 0.9268 0.2776 0.0000
vt 0.9902 0.2776 0.0000
vt 0.9268 0.2203 0.0000
vt 0.9902 0.2203 0.0000
vt 0.9902 0.1631 0.0000
vt 0.9268 0.1631 0.0000
vt 0.9902 0.1058 0.0000
vt 0.9268 0.1058 0.0000
vt 0.0847 0.0367 0.0000
vt 0.0817 0.0916 0.0000
vt 0.1364 0.0367 0.0000
vt 0.1354 0.0916 0.0000
vt 0.1891 0.0916 0.0000
vt 0.1881 0.0367 0.0000
vt 0.2428 0.0916 0.0000
vt 0.2397 0.0367 0.0000
vt 0.3406 0.0899 0.0000
vt 0.3406 0.0351 0.0000
vt 0.3728 0.0899 0.0000
vt 0.3728 0.0351 0.0000
vt 0.4302 0.0351 0.0000
vt 0.4302 0.0899 0.0000
vt 0.4873 0.0899 0.0000
vt 0.4873 0.0351 0.0000
vt 0.5269 0.0899 0.0000
vt 0.5269 0.0351 0.0000
vt 0.6152 0.0899 0.0000
vt 0.6152 0.0351 0.0000
vt 0.7036 0.0351 0.0000
vt 0.7036 0.0899 0.0000
vt 0.7920 0.0351 0.0000
vt 0.7920 0.0899 0.0000
vt 0.8359 0.0899 0.0000
vt 0.8359 0.0351 0.0000
vt 0.8955 0.0899 0.0000
vt 0.8955 0.0351 0.0000
vt 0.9546 0.0351 0.0000
vt 0.9546 0.0899 0.0000
vt 0.9922 0.0899 0.0000
vt 0.9922 0.0351 0.0000
vt 0.1257 0.0692 0.0000
vt 0.1257 0.0857 0.0000
vt 0.1681 0.0692 0.0000
vt 0.1681 0.0857 0.0000
vt 0.0900 0.0857 0.0000
vt 0.0900 0.0692 0.0000
vt 0.0542 0.0692 0.0000
vt 0.0542 0.0857 0.0000
vt 0.0118 0.0857 0.0000
vt 0.0118 0.0692 0.0000
vt 0.6758 0.0876 0.0000
vt 0.6758 0.0671 0.0000
vt 0.5645 0.0876 0.0000
vt 0.5645 0.0671 0.0000
vt 0.4529 0.0671 0.0000
vt 0.4529 0.0876 0.0000
vt 0.2302 0.0671 0.0000
vt 0.2302 0.0876 0.0000
vt 0.1188 0.0671 0.0000
vt 0.1188 0.0876 0.0000
vt 0.0074 0.0671 0.0000
vt 0.0074 0.0876 0.0000
vt 0.0074 0.0884 0.0000
vt 0.0074 0.0679 0.0000
vt 0.1188 0.0884 0.0000
vt 0.1188 0.0679 0.0000
vt 0.2302 0.0679 0.0000
vt 0.2302 0.0884 0.0000
vt 0.4529 0.0679 0.0000
vt 0.4529 0.0884 0.0000
vt 0.5645 0.0679 0.0000
vt 0.5645 0.0884 0.0000
vt 0.6758 0.0679 0.0000
vt 0.6758 0.0884 0.0000
vt 0.0547 0.1218 0.0000
vt 0.0547 0.2642 0.0000
vt 0.1663 0.1218 0.0000
vt 0.1663 0.2642 0.0000
vt 0.2778 0.2642 0.0000
vt 0.2778 0.1218 0.0000
vt 0.5010 0.2642 0.0000
vt 0.5010 0.1218 0.0000
vt 0.6123 0.2642 0.0000
vt 0.6123 0.1218 0.0000
vt 0.7036 0.2642 0.0000
vt 0.7036 0.1218 0.0000
vt 0.7471 0.2349 0.0000
vt 0.7471 0.1563 0.0000
vt 0.7598 0.1956 0.0000
vt 0.7466 0.2642 0.0000
vt 0.7466 0.1218 0.0000
vt 0.6353 0.2642 0.0000
vt 0.6353 0.1218 0.0000
vt 0.5244 0.1218 0.0000
vt 0.5244 0.2642 0.0000
vt 0.3025 0.1218 0.0000
vt 0.3025 0.2642 0.0000
vt 0.1914 0.1218 0.0000
vt 0.1914 0.2642 0.0000
vt 0.1008 0.1218 0.0000
vt 0.1008 0.2642 0.0000
vt 0.0575 0.1563 0.0000
vt 0.0575 0.2349 0.0000
vt 0.0449 0.1956 0.0000
vt 0.4390 0.0245 0.0000
vt 0.4863 0.0245 0.0000
vt 0.4492 0.0065 0.0000
vt 0.0382 0.0065 0.0000
vt 0.0249 0.0245 0.0000
vt 0.1067 0.0065 0.0000
vt 0.0939 0.0245 0.0000
vt 0.1628 0.0245 0.0000
vt 0.1752 0.0065 0.0000
vt 0.3806 0.0065 0.0000
vt 0.6523 0.0245 0.0000
vt 0.5972 0.0065 0.0000
vt 0.5874 0.0245 0.0000
vt 0.6616 0.0065 0.0000
vt 0.7168 0.0245 0.0000
vt 0.7266 0.0065 0.0000
vt 0.8462 0.0245 0.0000
vt 0.8560 0.0065 0.0000
vt 0.9106 0.0245 0.0000
vt 0.9209 0.0065 0.0000
vt 0.9858 0.0065 0.0000
vt 0.9756 0.0245 0.0000
vt 0.4634 0.0065 0.0000
vt 0.4736 0.0245 0.0000
vt 0.4895 0.0065 0.0000
vt 0.4998 0.0245 0.0000
vt 0.5254 0.0245 0.0000
vt 0.4219 0.0245 0.0000
vt 0.3459 0.0065 0.0000
vt 0.3557 0.0245 0.0000
vt 0.2795 0.0065 0.0000
vt 0.1471 0.0065 0.0000
vt 0.2896 0.0245 0.0000
vt 0.1572 0.0245 0.0000
vt 0.0808 0.0065 0.0000
vt 0.0911 0.0245 0.0000
vt 0.9980 0.0245 0.0000
vt 0.9844 0.0065 0.0000
vt 0.9272 0.0245 0.0000
vt 0.9146 0.0065 0.0000
vt 0.8442 0.0065 0.0000
vt 0.8569 0.0245 0.0000
vt 0.7041 0.0065 0.0000
vt 0.7153 0.0245 0.0000
vt 0.5635 0.0065 0.0000
vt 0.6450 0.0245 0.0000
vt 0.6338 0.0065 0.0000
vt 0.5742 0.0245 0.0000
vt 0.4810 0.0065 0.0000
vt 0.4343 0.0065 0.0000
vt 0.4714 0.0245 0.0000
vt 0.5063 0.0065 0.0000
vt 0.4968 0.0245 0.0000
vt 0.5220 0.0245 0.0000
vt 0.5322 0.0065 0.0000
vt 0.2859 0.0245 0.0000
vt 0.1603 0.0065 0.0000
vt 0.1479 0.0245 0.0000
vt 0.2974 0.0065 0.0000
vt 0.3550 0.0245 0.0000
vt 0.3657 0.0065 0.0000
vt 0.4241 0.0245 0.0000
vt 0.5820 0.0065 0.0000
vt 0.5728 0.0245 0.0000
vt 0.6372 0.0245 0.0000
vt 0.6470 0.0065 0.0000
vt 0.7021 0.0245 0.0000
vt 0.8960 0.0245 0.0000
vt 0.8413 0.0065 0.0000
vt 0.8315 0.0245 0.0000
vt 0.4746 0.0065 0.0000
vt 0.5107 0.0245 0.0000
vt 0.5010 0.0065 0.0000
vt 0.4587 0.0245 0.0000
vt 0.4485 0.0065 0.0000
vt 0.4070 0.0245 0.0000
vt 0.3975 0.0065 0.0000
vt 0.3311 0.0065 0.0000
vt 0.3408 0.0245 0.0000
vt 0.2646 0.0065 0.0000
vt 0.2747 0.0245 0.0000
vt 0.1322 0.0065 0.0000
vt 0.1423 0.0245 0.0000
vt 0.0659 0.0065 0.0000
vt 0.0762 0.0245 0.0000
vt 0.0100 0.0245 0.0000
vt -0.0004 0.0065 0.0000
vt 0.8291 0.0065 0.0000
vt 0.9126 0.0245 0.0000
vt 0.8994 0.0065 0.0000
vt 0.6890 0.0065 0.0000
vt 0.8418 0.0245 0.0000
vt 0.6187 0.0065 0.0000
vt 0.7007 0.0245 0.0000
vt 0.6299 0.0245 0.0000
vt 0.5591 0.0245 0.0000
vt 0.5488 0.0065 0.0000
# 295 texture coords

o rdmobj01_model_om_om0
g rdmobj01_model_om_om0
usemtl model_om_om0047_om004_saw1_png
f 1/1/1 2/2/2 3/3/3 
f 4/4/4 2/2/2 5/5/5 
f 5/5/5 2/2/2 1/1/1 
f 6/6/6 7/7/7 8/8/8 
f 8/8/8 7/7/7 9/9/9 
f 1/1/1 9/9/9 7/7/7 
f 1/1/1 3/3/3 9/9/9 
f 10/10/10 6/6/6 8/8/8 
f 11/11/11 1/12/1 12/13/12 
f 5/14/5 1/12/1 13/15/13 
f 11/11/11 13/15/13 1/12/1 
f 14/16/14 15/17/15 6/18/6 
f 16/19/16 6/18/6 15/17/15 
f 6/18/6 16/19/16 7/20/7 
f 12/13/12 7/20/7 16/19/16 
f 7/20/7 12/13/12 1/12/1 
f 17/6/17 18/10/18 19/8/19 
f 20/2/20 21/1/21 22/3/22 
f 23/7/23 22/3/22 21/1/21 
f 22/3/22 23/7/23 24/9/24 
f 17/6/17 24/9/24 23/7/23 
f 24/9/24 17/6/17 19/8/19 
f 20/2/20 25/4/4 21/1/21 
f 26/5/5 21/1/21 25/4/4 
f 27/21/25 28/22/26 29/23/27 
f 30/24/28 29/23/27 28/22/26 
f 31/25/29 32/26/30 33/27/31 
f 27/28/25 33/27/31 32/26/30 
f 34/29/32 35/30/33 36/31/34 
f 29/32/27 36/31/34 35/30/33 
f 32/26/30 31/25/29 36/31/34 
f 34/29/32 36/31/34 31/25/29 
f 33/27/31 27/28/25 35/30/33 
f 29/32/27 35/30/33 27/28/25 
f 37/33/35 38/34/36 29/35/27 
f 36/36/34 29/35/27 38/34/36 
f 39/37/37 40/38/38 30/39/28 
f 29/35/27 30/39/28 40/38/38 
f 37/33/35 29/35/27 41/40/39 
f 40/38/38 41/40/39 29/35/27 
f 41/40/39 40/38/38 42/41/40 
f 42/41/40 40/38/38 43/42/41 
f 44/43/42 43/42/41 40/38/38 
f 45/44/43 43/42/41 44/43/42 
f 43/42/41 45/44/43 46/45/44 
f 47/46/45 46/45/44 45/44/43 
f 46/45/44 47/46/45 48/47/46 
f 49/48/47 48/47/46 47/46/45 
f 48/47/46 49/48/47 50/49/48 
f 39/37/37 50/49/48 49/48/47 
f 50/49/48 39/37/37 51/50/49 
f 30/39/28 51/50/49 39/37/37 
f 52/51/50 44/52/42 53/53/51 
f 40/54/38 53/53/51 44/52/42 
f 49/55/47 54/56/52 39/57/37 
f 55/58/53 39/57/37 54/56/52 
f 21/12/21 26/14/5 56/11/54 
f 57/15/13 56/11/54 26/14/5 
f 58/16/55 17/18/17 59/17/56 
f 23/20/23 59/17/56 17/18/17 
f 59/17/56 23/20/23 60/19/57 
f 21/12/21 60/19/57 23/20/23 
f 60/19/57 21/12/21 61/13/58 
f 56/11/54 61/13/58 21/12/21 
f 57/59/13 25/60/4 56/61/54 
f 20/62/20 56/61/54 25/60/4 
f 36/63/34 38/64/36 32/65/30 
f 62/66/59 32/65/30 38/64/36 
f 63/67/60 51/68/49 28/22/26 
f 30/24/28 28/22/26 51/68/49 
f 32/36/30 62/34/59 27/35/25 
f 64/33/61 27/35/25 62/34/59 
f 64/33/61 65/40/62 27/35/25 
f 53/38/51 27/35/25 65/40/62 
f 27/35/25 53/38/51 28/39/26 
f 55/37/53 28/39/26 53/38/51 
f 28/39/26 55/37/53 63/50/60 
f 63/50/60 55/37/53 66/49/63 
f 54/48/52 66/49/63 55/37/53 
f 67/46/64 66/49/63 54/48/52 
f 66/49/63 67/46/64 68/47/65 
f 69/44/66 68/47/65 67/46/64 
f 68/47/65 69/44/66 70/45/67 
f 70/45/67 69/44/66 71/42/68 
f 52/43/50 71/42/68 69/44/66 
f 71/42/68 52/43/50 53/38/51 
f 71/42/68 53/38/51 72/41/69 
f 65/40/62 72/41/69 53/38/51 
f 64/69/61 37/70/35 65/71/62 
f 41/72/39 65/71/62 37/70/35 
f 64/69/61 62/73/59 33/74/31 
f 33/74/31 62/73/59 31/75/29 
f 38/76/36 31/75/29 62/73/59 
f 31/75/29 38/76/36 34/77/32 
f 34/77/32 38/76/36 35/78/33 
f 37/70/35 35/78/33 38/76/36 
f 64/69/61 35/78/33 37/70/35 
f 35/78/33 64/69/61 33/74/31 
f 50/79/48 51/68/49 66/80/63 
f 63/67/60 66/80/63 51/68/49 
f 13/59/13 2/62/2 4/60/4 
f 11/61/11 2/62/2 13/59/13 
f 55/58/53 53/53/51 39/57/37 
f 40/54/38 39/57/37 53/53/51 
f 65/81/62 41/82/39 72/83/69 
f 42/84/40 72/83/69 41/82/39 
f 72/83/69 42/84/40 71/85/68 
f 43/86/41 71/85/68 42/84/40 
f 6/87/6 10/88/10 73/89/70 
f 74/90/71 73/89/70 10/88/10 
f 75/91/72 73/89/70 74/90/71 
f 73/89/70 75/91/72 76/92/73 
f 18/93/18 76/92/73 75/91/72 
f 76/92/73 18/93/18 17/94/17 
f 71/95/68 43/96/41 70/97/67 
f 46/98/44 70/97/67 43/96/41 
f 48/99/46 70/97/67 46/98/44 
f 70/97/67 48/99/46 68/100/65 
f 50/101/48 68/100/65 48/99/46 
f 68/100/65 50/101/48 66/102/63 
f 44/43/42 52/43/50 45/44/43 
f 69/44/66 45/44/43 52/43/50 
f 67/46/64 45/44/43 69/44/66 
f 45/44/43 67/46/64 47/46/45 
f 54/48/52 47/46/45 67/46/64 
f 47/46/45 54/48/52 49/48/47 
f 14/103/14 6/104/6 77/105/74 
f 73/106/70 77/105/74 6/104/6 
f 76/107/73 77/105/74 73/106/70 
f 77/105/74 76/107/73 78/108/75 
f 17/109/17 78/108/75 76/107/73 
f 78/108/75 17/109/17 58/110/55 
f 2/111/2 11/112/11 3/113/3 
f 12/114/12 3/113/3 11/112/11 
f 16/115/16 3/113/3 12/114/12 
f 3/113/3 16/115/16 9/116/9 
f 9/116/9 16/115/16 8/117/8 
f 15/118/15 8/117/8 16/115/16 
f 8/117/8 15/118/15 10/119/10 
f 14/120/14 10/119/10 15/118/15 
f 10/119/10 14/120/14 74/121/71 
f 77/122/74 74/121/71 14/120/14 
f 78/123/75 74/121/71 77/122/74 
f 74/121/71 78/123/75 75/124/72 
f 58/125/55 75/124/72 78/123/75 
f 75/124/72 58/125/55 18/126/18 
f 18/126/18 58/125/55 19/127/19 
f 59/128/56 19/127/19 58/125/55 
f 19/127/19 59/128/56 24/129/24 
f 60/130/57 24/129/24 59/128/56 
f 61/131/58 24/129/24 60/130/57 
f 24/129/24 61/131/58 22/132/22 
f 22/132/22 61/131/58 20/133/20 
f 56/134/54 20/133/20 61/131/58 
f 79/135/76 80/136/77 81/137/78 
f 82/138/79 81/137/78 80/136/77 
f 80/136/77 79/135/76 83/139/80 
f 84/140/81 83/139/80 79/135/76 
f 85/141/82 83/139/80 84/140/81 
f 83/139/80 85/141/82 86/142/83 
f 86/142/83 85/141/82 87/143/84 
f 88/144/85 87/143/84 85/141/82 
f 89/145/86 90/146/87 91/147/88 
f 92/148/89 91/147/88 90/146/87 
f 93/149/90 91/147/88 92/148/89 
f 91/147/88 93/149/90 94/150/91 
f 95/151/92 94/150/91 93/149/90 
f 94/150/91 95/151/92 96/152/93 
f 97/153/94 96/152/93 95/151/92 
f 96/152/93 97/153/94 98/154/95 
f 81/155/78 98/154/95 97/153/94 
f 98/154/95 81/155/78 82/156/79 
f 87/157/84 88/158/85 99/159/96 
f 100/160/97 99/159/96 88/158/85 
f 101/161/98 99/159/96 100/160/97 
f 99/159/96 101/161/98 102/162/99 
f 103/163/100 102/162/99 101/161/98 
f 102/162/99 103/163/100 104/164/101 
f 105/165/102 104/164/101 103/163/100 
f 104/164/101 105/165/102 106/166/103 
f 107/167/104 106/166/103 105/165/102 
f 106/166/103 107/167/104 108/168/105 
f 90/169/87 107/170/104 92/171/89 
f 105/172/102 92/171/89 107/170/104 
f 103/173/100 92/171/89 105/172/102 
f 92/171/89 103/173/100 93/174/90 
f 101/175/98 93/174/90 103/173/100 
f 93/174/90 101/175/98 95/176/92 
f 100/177/97 95/176/92 101/175/98 
f 95/176/92 100/177/97 97/178/94 
f 88/179/85 97/178/94 100/177/97 
f 97/178/94 88/179/85 81/180/78 
f 85/181/82 81/180/78 88/179/85 
f 81/180/78 85/181/82 79/182/76 
f 84/183/81 79/182/76 85/181/82 
f 108/184/105 89/185/86 106/186/103 
f 91/187/88 106/186/103 89/185/86 
f 94/188/91 106/186/103 91/187/88 
f 106/186/103 94/188/91 104/189/101 
f 96/190/93 104/189/101 94/188/91 
f 104/189/101 96/190/93 102/191/99 
f 98/192/95 102/191/99 96/190/93 
f 102/191/99 98/192/95 99/193/96 
f 82/194/79 99/193/96 98/192/95 
f 99/193/96 82/194/79 87/195/84 
f 80/196/77 87/195/84 82/194/79 
f 87/195/84 80/196/77 86/197/83 
f 83/198/80 86/197/83 80/196/77 
f 87/199/84 86/200/83 109/201/106 
f 110/202/107 108/203/105 111/204/108 
f 106/205/103 111/204/108 108/203/105 
f 104/206/101 111/204/108 106/205/103 
f 111/204/108 104/206/101 112/207/109 
f 113/208/110 87/199/84 109/201/106 
f 98/209/95 114/210/111 82/211/79 
f 115/212/112 96/213/93 116/214/113 
f 94/215/91 116/214/113 96/213/93 
f 116/214/113 94/215/91 117/216/114 
f 117/216/114 91/217/88 118/218/115 
f 118/218/115 91/217/88 119/219/116 
f 89/220/86 119/219/116 91/217/88 
f 120/221/117 79/222/76 121/223/118 
f 84/224/81 121/223/118 79/222/76 
f 85/225/82 121/223/118 84/224/81 
f 81/226/78 115/227/112 97/228/94 
f 116/229/113 97/228/94 115/227/112 
f 117/230/114 95/231/92 116/229/113 
f 93/232/90 118/233/115 92/234/89 
f 107/235/104 110/236/107 105/237/102 
f 111/238/108 105/237/102 110/236/107 
f 105/237/102 112/239/109 103/240/100 
f 103/240/100 122/241/119 101/242/98 
f 109/243/106 100/244/97 113/245/110 
f 100/244/97 109/243/106 88/246/85 
f 123/247/120 109/248/106 86/249/83 
f 123/247/120 86/249/83 121/250/118 
f 83/251/80 121/250/118 86/249/83 
f 80/252/77 121/250/118 83/251/80 
f 121/250/118 80/252/77 120/253/117 
f 102/254/99 112/255/109 104/256/101 
f 112/255/109 102/254/99 122/257/119 
f 99/258/96 122/257/119 102/254/99 
f 122/257/119 99/258/96 113/259/110 
f 87/260/84 113/259/110 99/258/96 
f 120/253/117 80/252/77 114/261/111 
f 82/262/79 114/261/111 80/252/77 
f 114/261/111 98/263/95 115/264/112 
f 96/265/93 115/264/112 98/263/95 
f 91/266/88 117/267/114 94/268/91 
f 121/269/118 85/270/82 123/271/120 
f 79/272/76 120/273/117 81/274/78 
f 114/275/111 81/274/78 120/273/117 
f 115/276/112 81/274/78 114/275/111 
f 97/277/94 116/278/113 95/279/92 
f 95/279/92 117/280/114 93/281/90 
f 118/282/115 93/281/90 117/280/114 
f 92/283/89 118/282/115 90/284/87 
f 119/285/116 90/284/87 118/282/115 
f 112/286/109 105/287/102 111/288/108 
f 122/289/119 103/290/100 112/286/109 
f 113/291/110 101/292/98 122/289/119 
f 101/292/98 113/291/110 100/293/97 
f 123/271/120 88/294/85 109/295/106 
f 88/294/85 123/271/120 85/270/82 
# 264 faces

