# 3ds Max Wavefront OBJ Exporter v0.97b - (c)2007 guruware
# File Created: 10.12.2022 18:04:10

mtllib sniper_rifle.mtl

#
# object sniperMag
#

v  4.0540 -0.4198 -1.2339
v  17.5081 -0.4198 -1.2339
v  17.5081 -4.5314 -1.2339
v  4.0540 -6.3317 -1.2339
v  4.0540 3.8920 1.2338
v  4.0540 -6.3317 1.2338
v  17.5081 -4.5314 1.2338
v  17.5081 3.8920 1.2338
v  54.7746 5.4874 1.5388
v  54.7746 6.3758 0.0000
v  54.7746 5.4874 -1.5388
v  54.7746 3.7105 -1.5388
v  54.7746 2.8221 0.0000
v  54.7746 3.7105 1.5388
v  112.3388 3.7105 -1.5388
v  112.3388 2.8221 0.0000
v  112.3388 5.4873 -1.5388
v  112.3388 6.3758 0.0000
v  112.3388 5.4873 1.5388
v  112.3388 3.7105 1.5388
v  123.6695 2.5470 0.0000
v  123.6695 3.5730 -1.7770
v  123.6695 5.6249 -1.7770
v  123.6695 6.6508 0.0000
v  123.6695 5.6249 1.7770
v  123.6695 3.5730 1.7770
v  112.8531 3.5730 -1.7770
v  112.8531 2.5470 0.0000
v  112.8531 5.6249 -1.7770
v  112.8531 6.6508 0.0000
v  112.8531 5.6249 1.7770
v  112.8531 3.5730 1.7770
v  -15.0021 13.6865 2.0471
v  -15.0031 14.8700 -0.0027
v  -15.0041 13.6865 -2.0525
v  -15.0041 11.3196 -2.0525
v  -15.0031 10.1361 -0.0027
v  -15.0021 11.3196 2.0471
v  -3.5175 10.8829 0.0000
v  -3.5175 11.6930 -1.4031
v  12.1851 11.6931 -1.4030
v  12.1851 10.8830 0.0000
v  -3.5175 13.3131 -1.4031
v  12.1851 13.3132 -1.4030
v  -3.5174 14.1231 0.0000
v  12.1851 14.1232 0.0000
v  -3.5174 13.3131 1.4030
v  12.1851 13.3132 1.4031
v  -3.5174 11.6930 1.4030
v  12.1851 11.6931 1.4031
v  20.3397 11.1299 -2.3784
v  20.3398 11.1299 2.3784
v  19.8136 9.7567 0.0000
v  4.1898 16.0251 1.5387
v  5.0782 16.0251 -0.0001
v  4.1898 16.0251 -1.5389
v  2.4129 16.0251 -1.5389
v  1.5245 16.0251 -0.0001
v  2.4129 16.0251 1.5387
v  2.4130 10.5490 -1.5388
v  1.5246 10.5490 0.0000
v  4.1899 10.5490 -1.5388
v  5.0783 10.5490 0.0000
v  4.1899 10.5490 1.5388
v  2.4130 10.5490 1.5388
v  17.4994 11.1299 -2.3784
v  17.4994 9.7567 0.0000
v  17.4994 13.8763 -2.3784
v  17.4994 15.2495 0.0000
v  17.4994 13.8763 2.3784
v  17.4994 11.1299 2.3784
v  21.9146 13.8763 -2.3784
v  23.1188 15.2495 0.0000
v  21.9147 13.8763 2.3784
v  -4.2021 13.6865 2.0524
v  -4.2021 11.3196 2.0524
v  -4.2031 14.8700 0.0026
v  -4.2041 13.6865 -2.0472
v  -4.2041 11.3196 -2.0472
v  -4.2031 10.1361 0.0026
v  -2.2461 12.3269 1.9938
v  -2.2461 14.1409 1.1479
v  -2.2461 14.3153 -0.8459
v  -2.2461 12.6758 -1.9939
v  -2.2461 10.8619 -1.1481
v  -2.2461 10.6874 0.8458
v  0.1032 12.6759 -1.9938
v  0.1032 10.8619 -1.1479
v  0.1032 14.3154 -0.8458
v  0.1032 14.1409 1.1481
v  0.1032 12.3270 1.9939
v  0.1032 10.6875 0.8459
v  -2.2461 8.2149 -0.5586
v  -2.2461 8.0404 0.6142
v  0.1033 8.2149 -0.5584
v  0.1033 8.0405 0.6143
v  6.6586 12.3269 1.9938
v  6.6586 14.1409 1.1479
v  6.6586 14.3153 -0.8459
v  6.6586 12.6758 -1.9939
v  6.6586 10.8619 -1.1481
v  6.6586 10.6874 0.8458
v  9.0080 12.6759 -1.9938
v  9.0080 10.8619 -1.1479
v  9.0080 14.3154 -0.8458
v  9.0080 14.1409 1.1481
v  9.0080 12.3270 1.9939
v  9.0080 10.6875 0.8459
v  6.6587 8.2149 -0.5586
v  6.6587 8.0404 0.6142
v  9.0081 8.2149 -0.5584
v  9.0081 8.0405 0.6143
v  -4.1872 -1.5733 -0.4848
v  2.3127 -1.5733 -0.4848
v  3.8665 -2.2400 -0.4848
v  -4.1872 -2.2400 -0.4848
v  -4.1872 -1.5733 0.4848
v  -4.1872 -2.2400 0.4848
v  3.8665 -2.2400 0.4848
v  2.3127 -1.5733 0.4848
v  3.8665 -2.2400 -1.5618
v  2.3127 -1.5733 -1.5618
v  2.2595 2.3510 -1.5618
v  2.3127 -1.5733 1.5617
v  2.2595 2.3510 1.5617
v  3.8665 -2.2400 1.5617
v  10.3796 2.4414 -1.5618
v  10.3796 2.4414 1.5617
v  -13.0529 7.9492 -1.9177
v  54.3139 7.9491 -1.9177
v  57.8076 5.2081 -1.9177
v  57.8076 2.0373 -1.9177
v  -13.0529 2.0373 -1.9177
v  -13.0529 7.9492 1.9177
v  -13.0529 2.0373 1.9177
v  57.8076 2.0373 1.9177
v  57.8076 5.2081 1.9177
v  54.3139 7.9491 1.9177
v  -4.5897 9.1978 -1.5030
v  16.8877 9.1977 -1.5030
v  16.8877 7.6730 -1.5030
v  -4.5897 7.6730 -1.5030
v  -4.5897 9.1978 1.5029
v  -4.5897 7.6730 1.5029
v  16.8877 7.6730 1.5029
v  16.8877 9.1977 1.5029
v  -11.9724 -2.4165 -0.9715
v  -10.2879 -4.6071 -0.9715
v  -10.2879 -9.7241 -0.9715
v  -11.9724 -9.7241 -0.9715
v  -11.9724 -2.4165 0.9715
v  -11.9724 -9.7241 0.9715
v  -10.2879 -9.7241 0.9715
v  -10.2879 -4.6071 0.9715
v  -7.9306 -9.7241 -0.9715
v  -7.9306 -9.7241 0.9715
v  -6.7178 -0.8764 -0.9715
v  -3.5866 -2.1565 -0.9715
v  -6.7178 -0.8764 0.9715
v  -3.5866 -2.1565 0.9715
v  -6.8035 2.3126 -0.9715
v  -0.5123 2.3137 -0.9715
v  -6.8035 2.3126 0.9715
v  -0.5123 2.3137 0.9715
v  -36.7160 -4.0799 -1.3245
v  -36.7160 -4.0799 1.3244
v  -36.7160 1.2137 1.3244
v  -36.7160 1.2137 -1.3245
v  -37.6738 -9.3734 -1.3245
v  -30.4489 -9.3734 -1.3245
v  -30.4489 -9.3734 1.3244
v  -37.6738 -9.3734 1.3244
v  -11.5998 -9.9573 -1.3245
v  -11.5998 6.5072 -1.3245
v  -11.5998 6.5072 1.3244
v  -11.5998 -9.9573 1.3244
v  -30.4489 6.5072 -1.3245
v  -37.6738 6.5072 -1.3245
v  -37.6738 6.5072 1.3244
v  -30.4489 6.5072 1.3244
v  -28.0915 -5.2493 -1.3245
v  -28.0915 -5.2493 1.3244
v  -20.5145 -5.2493 -1.3245
v  -20.5145 -5.2493 1.3244
v  -15.6927 -9.9573 -1.3245
v  -15.6927 -9.9573 1.3244
v  -31.9796 4.5136 -1.3245
v  -32.9748 4.5136 -1.3245
v  -31.9796 -7.3798 -1.3245
v  -32.9748 -7.3798 -1.3245
v  -32.9748 -7.3798 1.3244
v  -32.9748 4.5136 1.3244
v  -31.9796 -7.3798 1.3244
v  -31.9796 4.5136 1.3244
v  -28.9282 7.8169 -2.1928
v  -11.6419 7.8169 -2.1928
v  -11.6419 4.1959 -2.1928
v  -27.8672 4.1959 -2.1928
v  -28.9282 7.8169 2.1928
v  -27.8672 4.1959 2.1928
v  -11.6419 4.1959 2.1928
v  -11.6419 7.8169 2.1928
v  -28.9282 9.0311 0.9786
v  -28.9282 9.0311 -0.9786
v  -11.6419 9.0311 -0.9786
v  -11.6419 9.0311 0.9786
v  50.5315 -0.2096 -1.9241
v  23.2583 -0.2096 -1.9241
v  23.2583 1.9065 -1.9241
v  50.5315 1.9065 -1.9241
v  50.5315 -0.2096 1.9241
v  50.5315 1.9065 1.9241
v  23.2583 1.9065 1.9241
v  23.2583 -0.2096 1.9241
v  23.2583 1.9065 -0.5441
v  23.2583 -0.2096 -0.5441
v  49.5557 -0.2096 -0.9483
v  49.5557 1.9065 -0.9483
v  23.2583 1.9065 0.5441
v  49.5557 1.9065 0.9483
v  49.5557 -0.2096 0.9483
v  23.2583 -0.2096 0.5441
# 222 vertices

vn 0.0000 0.2570 -0.9664
vn 0.0000 0.0000 -1.0000
vn 0.0000 -0.0000 1.0000
vn -1.0000 0.0000 -0.0000
vn 0.1326 -0.9912 -0.0000
vn 1.0000 0.0000 -0.0000
vn 0.0000 0.4967 -0.8679
vn 0.0000 -0.8660 -0.5000
vn -0.2303 -0.8427 -0.4866
vn -0.2303 0.0000 -0.9731
vn 0.0000 0.8660 -0.5000
vn -0.2303 0.8427 -0.4866
vn 0.0000 0.8660 0.5000
vn -0.2303 0.8427 0.4866
vn -0.2303 -0.0000 0.9731
vn 0.0000 -0.8660 0.5000
vn -0.2303 -0.8427 0.4866
vn -0.1975 -0.8490 -0.4902
vn -0.1975 0.0000 -0.9803
vn -0.1975 0.8490 -0.4902
vn -0.1975 0.8490 0.4902
vn -0.1975 -0.0000 0.9803
vn -0.1975 -0.8490 0.4902
vn -1.0000 -0.0000 0.0005
vn -0.0935 -0.8622 -0.4978
vn -0.0935 0.0000 -0.9956
vn -0.0935 0.8622 -0.4978
vn -0.0935 0.8622 0.4978
vn -0.0935 -0.0000 0.9956
vn -0.0935 -0.8622 0.4978
vn 0.8868 -0.4621 -0.0000
vn 0.9338 -0.3578 -0.0000
vn 0.0000 1.0000 0.0000
vn -0.8660 0.0000 -0.5000
vn 0.8660 0.0000 -0.5000
vn 0.8660 -0.0000 0.5000
vn -0.8660 -0.0000 0.5000
vn -0.0875 -0.8627 -0.4981
vn -0.0875 0.0000 -0.9962
vn -0.0875 0.8627 -0.4981
vn -0.0875 0.8627 0.4981
vn -0.0875 -0.0000 0.9962
vn -0.0875 -0.8627 0.4981
vn 0.8369 -0.5473 -0.0000
vn 0.7519 -0.6593 -0.0000
vn 0.6882 -0.0000 0.7255
vn 0.6873 0.6292 0.3630
vn 0.6869 0.6294 0.3634
vn 0.6871 0.6293 0.3632
vn 0.6874 0.6292 0.3629
vn 0.6852 0.6306 -0.3644
vn 0.6849 0.6310 -0.3643
vn 0.6850 0.6308 -0.3643
vn 0.6853 0.6305 -0.3644
vn 0.6841 0.0000 -0.7294
vn 0.6851 -0.6308 -0.3644
vn 0.6854 -0.6306 -0.3641
vn 0.6852 -0.6307 -0.3642
vn 0.6850 -0.6308 -0.3645
vn 0.6871 -0.6293 0.3631
vn 0.6874 -0.6289 0.3631
vn 0.6873 -0.6291 0.3631
vn 0.6870 -0.6295 0.3631
vn -0.0005 -0.0000 1.0000
vn -0.0002 0.8660 0.5000
vn 0.0002 0.8660 -0.5000
vn 0.0005 0.0000 -1.0000
vn 0.0002 -0.8660 -0.5000
vn -0.0002 -0.8660 0.5000
vn 0.0001 -0.3219 -0.9468
vn 0.0001 -0.4226 -0.9063
vn 0.0000 0.5736 -0.8192
vn 0.0000 0.9962 0.0872
vn -0.0001 0.4226 0.9063
vn 0.0000 -0.5736 0.8192
vn 0.0001 -0.2174 -0.9761
vn -0.0001 -0.0872 0.9962
vn 0.0000 -1.0000 -0.0000
vn -0.9999 -0.0136 -0.0000
vn 0.5836 -0.8120 -0.0000
vn 0.6173 0.7868 0.0000
vn 0.7927 0.6096 0.0000
vn -0.7225 0.6914 0.0000
vn 0.8673 -0.4978 -0.0000
vn 0.8463 -0.5327 -0.0000
vn -0.9996 -0.0268 -0.0000
vn 0.8239 -0.5667 -0.0000
vn -0.9960 0.0894 0.0000
vn -0.9960 -0.0894 -0.0000
vn 0.8682 -0.4962 -0.0000
vn -0.6986 -0.7155 -0.0000
vn -0.9840 0.1780 0.0000
vn -0.9840 -0.1780 -0.0000
vn -0.9806 -0.1931 0.0342
vn -0.9597 -0.2812 -0.0000
vn -0.9687 -0.2479 -0.0134
vn -0.9238 -0.2707 -0.2707
vn -0.9823 -0.1865 -0.0198
vn -0.3943 -0.9190 -0.0000
vn 0.0000 0.7071 -0.7071
vn 0.0000 0.7071 0.7071
vn 0.0154 -0.0000 0.9999
vn 0.0154 0.0000 -0.9999
# 103 vertex normals

vt 1.0000 0.0000 0.0000
vt 1.0000 1.0000 0.0000
vt 0.0000 1.0000 0.0000
vt 0.0000 0.0000 0.0000
vt 0.0833 0.0000 0.0000
vt 0.2500 0.0000 0.0000
vt 0.6667 0.0000 0.0000
vt 0.9167 0.0000 0.0000
vt 0.7500 0.0000 0.0000
vt 0.3333 0.0000 0.0000
vt 0.9167 1.0000 0.0000
vt 0.7500 1.0000 0.0000
vt -0.0833 0.0000 0.0000
vt 0.0833 1.0000 0.0000
vt -0.0833 1.0000 0.0000
vt 0.2500 1.0000 0.0000
vt 0.4167 0.0000 0.0000
vt 0.4167 1.0000 0.0000
vt 0.5833 0.0000 0.0000
vt 0.5833 1.0000 0.0000
vt 0.6667 1.0000 0.0000
vt 1.0000 0.9613 0.0000
vt 0.5364 1.0000 0.0000
vt 0.4636 1.0000 0.0000
vt 0.0000 0.9613 0.0000
vt 0.5364 0.0000 0.0000
vt 0.0387 0.0000 0.0000
vt 0.0387 1.0000 0.0000
vt -33.5384 -0.0002 0.0000
vt -33.5384 0.9998 0.0000
vt 0.3333 1.0000 0.0000
vt 0.7489 0.0000 0.0000
vt 0.7489 1.0000 0.0000
vt 0.2511 0.0000 0.0000
vt 0.2511 1.0000 0.0000
vt 0.0000 0.7231 0.0000
vt 0.0000 0.2769 0.0000
vt 1.0000 0.2769 0.0000
vt 1.0000 0.7231 0.0000
vt 1.0000 0.1563 0.0000
vt -0.0000 0.1563 0.0000
vt 0.0000 0.8437 0.0000
vt 1.0000 0.8437 0.0000
# 43 texture coords

o sniperMag
g sniperMag
usemtl 01___Default
s off
f 1/1/1 2/2/1 3/3/2 
f 3/3/2 4/4/2 1/1/1 
f 5/4/3 6/1/3 7/2/3 
f 7/2/3 8/3/3 5/4/3 
f 1/4/4 4/1/4 6/2/4 
f 6/2/4 5/3/4 1/4/4 
f 4/4/5 3/1/5 7/2/5 
f 7/2/5 6/3/5 4/4/5 
f 3/4/6 2/1/6 8/2/6 
f 8/2/6 7/3/6 3/4/6 
f 2/4/1 1/1/1 5/2/7 
f 5/2/7 8/3/7 2/4/1 
f 9/5/4 10/6/4 11/7/4 
f 11/7/4 12/8/4 13/9/4 
f 9/5/4 11/7/4 13/9/4 
f 14/10/4 9/5/4 13/9/4 
f 13/9/8 12/8/8 15/11/9 
f 15/11/9 16/12/9 13/9/8 
f 12/13/2 11/5/2 17/14/10 
f 17/14/10 15/15/10 12/13/2 
f 11/5/11 10/6/11 18/16/12 
f 18/16/12 17/14/12 11/5/11 
f 10/6/13 9/17/13 19/18/14 
f 19/18/14 18/16/14 10/6/13 
f 9/17/3 14/19/3 20/20/15 
f 20/20/15 19/18/15 9/17/3 
f 14/19/16 13/9/16 16/12/17 
f 16/12/17 20/20/17 14/19/16 
f 21/12/6 22/11/6 23/21/6 
f 23/21/6 24/16/6 25/14/6 
f 21/12/6 23/21/6 25/14/6 
f 26/20/6 21/12/6 25/14/6 
f 16/12/9 15/11/9 27/11/18 
f 27/11/18 28/12/18 16/12/9 
f 15/11/10 17/21/10 29/21/19 
f 29/21/19 27/11/19 15/11/10 
f 17/21/12 18/16/12 30/16/20 
f 30/16/20 29/21/20 17/21/12 
f 18/16/14 19/14/14 31/14/21 
f 31/14/21 30/16/21 18/16/14 
f 19/14/15 20/20/15 32/20/22 
f 32/20/22 31/14/22 19/14/15 
f 20/20/17 16/12/17 28/12/23 
f 28/12/23 32/20/23 20/20/17 
f 28/12/18 27/11/18 22/11/8 
f 22/11/8 21/12/8 28/12/18 
f 27/11/19 29/21/19 23/21/2 
f 23/21/2 22/11/2 27/11/19 
f 29/21/20 30/16/20 24/16/11 
f 24/16/11 23/21/11 29/21/20 
f 30/16/21 31/14/21 25/14/13 
f 25/14/13 24/16/13 30/16/21 
f 31/14/22 32/20/22 26/20/3 
f 26/20/3 25/14/3 31/14/22 
f 32/20/23 28/12/23 21/12/16 
f 21/12/16 26/20/16 32/20/23 
f 33/5/24 34/6/24 35/7/24 
f 35/7/24 36/8/24 37/9/24 
f 33/5/24 35/7/24 37/9/24 
f 38/10/24 33/5/24 37/9/24 
f 39/9/8 40/8/8 41/11/25 
f 41/11/25 42/12/25 39/9/8 
f 40/13/2 43/5/2 44/14/26 
f 44/14/26 41/15/26 40/13/2 
f 43/5/11 45/6/11 46/16/27 
f 46/16/27 44/14/27 43/5/11 
f 45/6/13 47/17/13 48/18/28 
f 48/18/28 46/16/28 45/6/13 
f 47/17/3 49/19/3 50/20/29 
f 50/20/29 48/18/29 47/17/3 
f 49/19/16 39/9/16 42/12/30 
f 42/12/30 50/20/30 49/19/16 
f 51/11/31 52/20/31 53/12/32 
f 54/5/33 55/6/33 56/7/33 
f 56/7/33 57/8/33 58/9/33 
f 54/5/33 56/7/33 58/9/33 
f 59/10/33 54/5/33 58/9/33 
f 58/9/34 57/8/34 60/11/34 
f 60/11/34 61/12/34 58/9/34 
f 57/13/2 56/5/2 62/14/2 
f 62/14/2 60/15/2 57/13/2 
f 56/5/35 55/6/35 63/16/35 
f 63/16/35 62/14/35 56/5/35 
f 55/6/36 54/17/36 64/18/36 
f 64/18/36 63/16/36 55/6/36 
f 54/17/3 59/19/3 65/20/3 
f 65/20/3 64/18/3 54/17/3 
f 59/19/37 58/9/37 61/12/37 
f 61/12/37 65/20/37 59/19/37 
f 42/12/25 41/11/25 66/11/38 
f 66/11/38 67/12/38 42/12/25 
f 41/11/26 44/14/26 68/14/39 
f 68/14/39 66/11/39 41/11/26 
f 44/14/27 46/16/27 69/16/40 
f 69/16/40 68/14/40 44/14/27 
f 46/16/28 48/18/28 70/18/41 
f 70/18/41 69/16/41 46/16/28 
f 48/18/29 50/20/29 71/20/42 
f 71/20/42 70/18/42 48/18/29 
f 50/20/30 42/12/30 67/12/43 
f 67/12/43 71/20/43 50/20/30 
f 67/12/38 66/11/38 51/11/8 
f 51/11/8 53/12/8 67/12/38 
f 66/11/39 68/14/39 72/14/2 
f 72/14/2 51/11/2 66/11/39 
f 68/14/40 69/16/40 73/16/11 
f 73/16/11 72/14/11 68/14/40 
f 69/16/41 70/18/41 74/18/13 
f 74/18/13 73/16/13 69/16/41 
f 70/18/42 71/20/42 52/20/3 
f 52/20/3 74/18/3 70/18/42 
f 71/20/43 67/12/43 53/12/16 
f 53/12/16 52/20/16 71/20/43 
f 72/14/44 74/18/44 52/20/31 
f 52/20/31 51/11/31 72/14/44 
f 72/14/44 73/16/45 74/18/44 
f 49/10/46 47/5/46 75/5/46 
f 75/5/46 76/10/46 49/10/46 
f 47/5/47 45/6/48 77/6/49 
f 77/6/49 75/5/50 47/5/47 
f 45/6/51 43/7/52 78/7/53 
f 78/7/53 77/6/54 45/6/51 
f 43/7/55 40/8/55 79/8/55 
f 79/8/55 78/7/55 43/7/55 
f 40/8/56 39/9/57 80/9/58 
f 80/9/58 79/8/59 40/8/56 
f 39/9/60 49/10/61 76/10/62 
f 76/10/62 80/9/63 39/9/60 
f 76/10/64 75/5/64 33/5/64 
f 33/5/64 38/10/64 76/10/64 
f 75/5/65 77/6/65 34/6/65 
f 34/6/65 33/5/65 75/5/65 
f 77/6/66 78/7/66 35/7/66 
f 35/7/66 34/6/66 77/6/66 
f 78/7/67 79/8/67 36/8/67 
f 36/8/67 35/7/67 78/7/67 
f 79/8/68 80/9/68 37/9/68 
f 37/9/68 36/8/68 79/8/68 
f 80/9/69 76/10/69 38/10/69 
f 38/10/69 37/9/69 80/9/69 
f 81/5/4 82/6/4 83/7/4 
f 83/7/4 84/8/4 85/9/4 
f 81/5/4 83/7/4 85/9/4 
f 86/10/4 81/5/4 85/9/4 
f 85/9/70 84/8/71 87/11/71 
f 87/11/71 88/12/70 85/9/70 
f 84/13/72 83/5/72 89/14/72 
f 89/14/72 87/15/72 84/13/72 
f 83/5/73 82/6/73 90/16/73 
f 90/16/73 89/14/73 83/5/73 
f 82/6/74 81/17/74 91/18/74 
f 91/18/74 90/16/74 82/6/74 
f 81/17/75 86/19/75 92/20/75 
f 92/20/75 91/18/75 81/17/75 
f 86/19/4 85/9/4 93/9/4 
f 93/9/4 94/19/4 86/19/4 
f 85/9/70 88/12/70 95/12/76 
f 95/12/76 93/9/76 85/9/70 
f 88/12/6 92/20/6 96/20/6 
f 96/20/6 95/12/6 88/12/6 
f 92/20/77 86/19/77 94/19/77 
f 94/19/77 96/20/77 92/20/77 
f 97/5/4 98/6/4 99/7/4 
f 99/7/4 100/8/4 101/9/4 
f 97/5/4 99/7/4 101/9/4 
f 102/10/4 97/5/4 101/9/4 
f 101/9/70 100/8/71 103/11/71 
f 103/11/71 104/12/70 101/9/70 
f 100/13/72 99/5/72 105/14/72 
f 105/14/72 103/15/72 100/13/72 
f 99/5/73 98/6/73 106/16/73 
f 106/16/73 105/14/73 99/5/73 
f 98/6/74 97/17/74 107/18/74 
f 107/18/74 106/16/74 98/6/74 
f 97/17/75 102/19/75 108/20/75 
f 108/20/75 107/18/75 97/17/75 
f 102/19/4 101/9/4 109/9/4 
f 109/9/4 110/19/4 102/19/4 
f 101/9/70 104/12/70 111/12/76 
f 111/12/76 109/9/76 101/9/70 
f 104/12/6 108/20/6 112/20/6 
f 112/20/6 111/12/6 104/12/6 
f 108/20/77 102/19/77 110/19/77 
f 110/19/77 112/20/77 108/20/77 
f 113/1/2 114/2/2 115/3/2 
f 115/3/2 116/4/2 113/1/2 
f 117/4/3 118/1/3 119/2/3 
f 119/2/3 120/3/3 117/4/3 
f 116/4/78 115/1/78 119/2/78 
f 119/2/78 118/3/78 116/4/78 
f 114/4/33 113/1/33 117/2/33 
f 117/2/33 120/3/33 114/4/33 
f 121/4/2 122/1/2 123/1/2 
f 122/1/79 124/2/79 125/3/79 
f 125/3/79 123/1/79 122/1/79 
f 124/2/3 126/3/3 125/3/3 
f 126/3/80 121/4/80 127/4/80 
f 127/4/80 128/3/80 126/3/80 
f 121/4/2 123/1/2 127/4/2 
f 125/3/3 126/3/3 128/3/3 
f 129/1/2 130/22/2 131/23/2 
f 129/1/2 131/23/2 132/3/2 
f 129/1/2 132/3/2 133/4/2 
f 134/4/3 135/1/3 136/2/3 
f 136/2/3 137/24/3 138/25/3 
f 134/4/3 136/2/3 138/25/3 
f 133/4/78 132/1/78 136/2/78 
f 136/2/78 135/3/78 133/4/78 
f 132/4/6 131/26/6 137/23/6 
f 137/23/6 136/3/6 132/4/6 
f 130/27/33 129/1/33 134/2/33 
f 134/2/33 138/28/33 130/27/33 
f 131/29/81 130/27/81 138/28/81 
f 138/28/81 137/30/81 131/29/81 
f 139/1/2 140/2/2 141/3/2 
f 141/3/2 142/4/2 139/1/2 
f 143/4/3 144/1/3 145/2/3 
f 145/2/3 146/3/3 143/4/3 
f 139/4/4 142/1/4 144/2/4 
f 144/2/4 143/3/4 139/4/4 
f 141/4/6 140/1/6 146/2/6 
f 146/2/6 145/3/6 141/4/6 
f 140/4/33 139/1/33 143/2/33 
f 143/2/33 146/3/33 140/4/33 
f 147/1/2 148/2/2 149/3/2 
f 149/3/2 150/4/2 147/1/2 
f 151/4/3 152/1/3 153/2/3 
f 153/2/3 154/3/3 151/4/3 
f 150/4/78 149/1/78 153/2/78 
f 153/2/78 152/3/78 150/4/78 
f 148/4/82 147/1/82 151/2/82 
f 151/2/82 154/3/82 148/4/82 
f 149/4/2 148/1/2 155/4/2 
f 154/2/3 153/3/3 156/3/3 
f 153/3/78 149/4/78 155/4/78 
f 155/4/78 156/3/78 153/3/78 
f 155/4/2 148/1/2 157/1/2 
f 157/1/2 158/4/2 155/4/2 
f 148/1/83 154/2/83 159/2/83 
f 159/2/83 157/1/83 148/1/83 
f 154/2/3 156/3/3 160/3/3 
f 160/3/3 159/2/3 154/2/3 
f 156/3/84 155/4/84 158/4/85 
f 158/4/85 160/3/85 156/3/84 
f 158/4/2 157/1/2 161/1/2 
f 161/1/2 162/4/2 158/4/2 
f 157/1/86 159/2/86 163/2/86 
f 163/2/86 161/1/86 157/1/86 
f 163/2/3 159/2/3 160/3/3 
f 160/3/3 164/3/3 163/2/3 
f 160/3/85 158/4/85 162/4/87 
f 162/4/87 164/3/87 160/3/85 
f 165/7/88 166/21/88 167/31/89 
f 167/31/89 168/10/89 165/7/88 
f 169/4/78 170/1/78 171/2/78 
f 171/2/78 172/3/78 169/4/78 
f 173/4/6 174/1/6 175/2/6 
f 175/2/6 176/3/6 173/4/6 
f 177/4/33 178/1/33 179/2/33 
f 179/2/33 180/3/33 177/4/33 
f 170/4/2 177/1/2 181/4/2 
f 180/2/3 171/3/3 182/3/3 
f 171/3/90 170/4/90 181/4/90 
f 181/4/90 182/3/90 171/3/90 
f 181/4/2 177/1/2 174/1/2 
f 174/1/2 183/4/2 181/4/2 
f 177/1/33 180/2/33 175/2/33 
f 175/2/33 174/1/33 177/1/33 
f 180/2/3 182/3/3 184/3/3 
f 184/3/3 175/2/3 180/2/3 
f 182/3/78 181/4/78 183/4/78 
f 183/4/78 184/3/78 182/3/78 
f 183/4/2 174/1/2 185/4/2 
f 175/2/3 184/3/3 186/3/3 
f 184/3/91 183/4/91 185/4/91 
f 185/4/91 186/3/91 184/3/91 
f 185/4/2 174/1/2 173/4/2 
f 175/2/3 186/3/3 176/3/3 
f 186/3/78 185/4/78 173/4/78 
f 173/4/78 176/3/78 186/3/78 
f 178/1/2 177/2/2 187/2/2 
f 187/2/2 188/1/2 178/1/2 
f 177/2/2 170/3/2 189/3/2 
f 189/3/2 187/2/2 177/2/2 
f 170/3/2 169/4/2 190/10/2 
f 190/10/2 189/3/2 170/3/2 
f 168/7/2 188/1/2 190/10/2 
f 190/10/2 165/10/2 168/7/2 
f 166/7/3 191/1/3 192/10/3 
f 192/10/3 167/10/3 166/7/3 
f 172/1/3 171/2/3 193/2/3 
f 193/2/3 191/1/3 172/1/3 
f 171/2/3 180/3/3 194/3/3 
f 194/3/3 193/2/3 171/2/3 
f 180/3/3 179/4/3 192/10/3 
f 192/10/3 194/3/3 180/3/3 
f 189/3/33 190/10/33 191/1/33 
f 191/1/33 193/2/33 189/3/33 
f 188/1/6 192/10/6 191/1/6 
f 191/1/6 190/10/6 188/1/6 
f 188/1/78 187/2/78 194/3/78 
f 194/3/78 192/10/78 188/1/78 
f 187/2/4 189/3/4 193/2/4 
f 193/2/4 194/3/4 187/2/4 
f 169/1/92 172/2/92 166/21/88 
f 166/21/88 165/7/88 169/1/92 
f 179/3/93 178/4/93 168/10/89 
f 168/10/89 167/31/89 179/3/93 
f 168/7/2 178/1/2 188/1/2 
f 190/10/2 169/4/2 165/10/2 
f 166/7/3 172/1/3 191/1/3 
f 192/10/3 179/4/3 167/10/3 
f 195/32/2 196/33/2 197/3/2 
f 197/3/2 198/4/2 195/32/2 
f 199/34/3 200/1/3 201/2/3 
f 201/2/3 202/35/3 199/34/3 
f 195/34/94 198/1/95 200/2/96 
f 200/2/96 199/35/97 203/36/98 
f 195/34/94 200/2/96 203/36/98 
f 204/37/4 195/34/94 203/36/98 
f 198/4/78 197/1/78 201/2/78 
f 201/2/78 200/3/78 198/4/78 
f 197/4/6 196/32/6 205/38/6 
f 205/38/6 206/39/6 202/33/6 
f 197/4/6 205/38/6 202/33/6 
f 197/4/6 202/33/6 201/3/6 
f 205/37/33 204/38/33 203/39/33 
f 203/39/33 206/36/33 205/37/33 
f 126/3/99 124/2/99 122/1/99 
f 122/1/99 121/4/99 126/3/99 
f 135/3/4 134/4/4 129/1/4 
f 129/1/4 133/4/4 135/3/4 
f 195/40/100 204/38/100 205/37/100 
f 205/37/100 196/41/100 195/40/100 
f 202/42/101 206/36/101 203/39/101 
f 203/39/101 199/43/101 202/42/101 
f 207/3/2 208/4/2 209/1/2 
f 209/1/2 210/2/2 207/3/2 
f 211/2/3 212/3/3 213/4/3 
f 213/4/3 214/1/3 211/2/3 
f 212/2/6 211/3/6 207/4/6 
f 207/4/6 210/1/6 212/2/6 
f 215/1/102 216/4/102 217/3/102 
f 217/3/102 218/2/102 215/1/102 
f 219/4/103 220/3/103 221/2/103 
f 221/2/103 222/1/103 219/4/103 
f 217/4/4 221/3/4 220/2/4 
f 220/2/4 218/1/4 217/4/4 
f 215/1/33 218/2/33 210/2/33 
f 210/2/33 209/1/33 215/1/33 
f 217/3/78 216/4/78 208/4/78 
f 208/4/78 207/3/78 217/3/78 
f 216/4/4 215/1/4 209/1/4 
f 209/1/4 208/4/4 216/4/4 
f 219/4/4 222/1/4 214/1/4 
f 214/1/4 213/4/4 219/4/4 
f 222/1/78 221/2/78 211/2/78 
f 211/2/78 214/1/78 222/1/78 
f 220/3/33 219/4/33 213/4/33 
f 213/4/33 212/3/33 220/3/33 
f 218/1/33 220/2/33 212/2/33 
f 212/2/33 210/1/33 218/1/33 
f 221/3/78 217/4/78 207/4/78 
f 207/4/78 211/3/78 221/3/78 
# 364 faces

